PathFileType	4	(X/Y/Z)	pose2sim_0-1073.trc
DataRate	CameraRate	NumFrames	NumMarkers	Units	OrigDataRate	OrigDataStartFrame	OrigNumFrames
50	50	8	22	m	50	939	1074
Frame#	Time	Hip			RHip			RKnee			RAnkle			RBigToe			RSmallToe			RHeel			LHip			LKnee			LAnkle			LBigToe			LSmallToe			LHeel			Neck			Head			Nose			RShoulder			RElbow			RWrist			LShoulder			LElbow			LWrist			
		X1	Y1	Z1	X2	Y2	Z2	X3	Y3	Z3	X4	Y4	Z4	X5	Y5	Z5	X6	Y6	Z6	X7	Y7	Z7	X8	Y8	Z8	X9	Y9	Z9	X10	Y10	Z10	X11	Y11	Z11	X12	Y12	Z12	X13	Y13	Z13	X14	Y14	Z14	X15	Y15	Z15	X16	Y16	Z16	X17	Y17	Z17	X18	Y18	Z18	X19	Y19	Z19	X20	Y20	Z20	X21	Y21	Z21	X22	Y22	Z22	
939	18.78	0.10190784543797886	0.8368586819825088	-0.054916950280585505	0.0012492807038999771	0.8247750133209064	-0.049127977027143256	-0.011484190882360327	0.44423542040590225	-0.07077649360691453	-0.046253694789229756	0.07247887247015329	-0.1065295227872676	-0.07410900423664449	0.03147201231301535	0.06496539595044742	-0.1145872043297305	0.03139030722400322	0.0005084423686596589	-0.035689898614513924	0.03568886685112784	-0.14771219284022852	0.20699288907485683	0.8256940037875897	-0.05525747970083643	0.22457658120329493	0.44278993869937266	-0.0863000567385725	0.24604365158237596	0.07621571429061548	-0.11321801301312874	0.26488019596670387	0.03287023293826132	0.05158250117255912	0.30067982318541076	0.038436188510434746	0.005519112156703592	0.24013009042062036	0.03699603163198106	-0.14479501989343846	0.11520879584793291	1.424220335497109	-0.07091533725862063	0.1187584983021713	1.6589396714048614	-0.04517257095889293	0.1208626819569833	1.5396103409540738	0.06199494124024434	-0.060933116349347755	1.323859268437135	-0.08139244208306674	-0.12458745521809754	1.0675946392729403	-0.07877802405553597	-0.13292796706953985	0.9663920371901338	0.14362630720848363	0.2855577867786154	1.31543571976864	-0.09808194740832402	0.345463383056927	1.063514016352292	-0.10918957720295931	0.36426178716196195	0.9628327882852973	0.09902178689435451
940	18.8	0.10523366749907073	0.8408846908843475	-0.05779465873272254	0.003982330506062969	0.8276159709046873	-0.05152725232652307	-0.013414187116242645	0.4428227715559024	-0.07121893571402538	-0.043606631621066684	0.07091387623715995	-0.10290425214276162	-0.07278494332953735	0.03378412343462512	0.0683382700060811	-0.10986203536657951	0.03578316748887471	0.005112999254223746	-0.037773002371259135	0.030412643132610075	-0.1415013646634517	0.20616976508626444	0.825786184414712	-0.05313192418811109	0.2204875961125812	0.44334775399860993	-0.08602361615159958	0.2464196322092424	0.07007414621135669	-0.11023820214541175	0.2542897353456721	0.029139522293132596	0.0700829939476474	0.2927517906756188	0.02504435078286307	0.019422738787056932	0.24199996589114292	0.028605417437326024	-0.1441831342845757	0.11823360851509528	1.424158711259174	-0.07122796265476043	0.11979596501277416	1.6607534185107578	-0.049090112502163954	0.12063278695440134	1.5429451251572408	0.08321704238098396	-0.06216291075087584	1.3197992863195838	-0.08314084980226072	-0.1332823750553482	1.064325122969712	-0.07723422370934363	-0.13343969551023832	0.9633392390962566	0.16918580923819426	0.2878801658160891	1.3116821857063168	-0.08576475060281157	0.35100158421228944	1.0525261064307865	-0.10211786741566083	0.36631384429809716	0.9572889536351967	0.10714930143543104
941	18.82	0.10425377269415678	0.8371584021766889	-0.054003498685041236	0.0031225861887757707	0.8252566336645001	-0.05323278755841384	-0.012595351872849747	0.4431562709328716	-0.07222860885197924	-0.04445026950187201	0.07251624784391644	-0.10661620138422513	-0.0719087400341129	0.030945187320004487	0.061936605366524046	-0.11206639051814869	0.032444860535034675	-0.0033304875083046957	-0.035653995602145334	0.038072101563660886	-0.14265029948435684	0.20705781190052058	0.8249526643738473	-0.05632310467827323	0.22250078798356077	0.4456058934734313	-0.08836809909762564	0.24544550393038564	0.07794970418007979	-0.11521013011039338	0.2624192207662663	0.035531304469940184	0.0506474058991628	0.30114638465012644	0.039524842866009775	0.005817643825932513	0.2396917769210556	0.03961772537116718	-0.14476229190448148	0.11473690275239436	1.4220957933740164	-0.06896177136188658	0.11960623104992488	1.65884615467711	-0.0402842767134326	0.12186878034988284	1.5379729300661111	0.06279327244576345	-0.059347077911724964	1.3224525109087981	-0.07860443632914647	-0.12428710318778334	1.0689017974250836	-0.07906324518602047	-0.12922017867060587	0.9583734267099534	0.14584376329637389	0.2872249330048001	1.3139814571004933	-0.09391515464353127	0.3450253873186933	1.0627153818410278	-0.1037892131654689	0.36864242845146417	0.9586902628717621	0.09106579920289667
942	18.84	0.10501540783603051	0.8354052253800821	-0.0548471730550639	0.0041860393067424855	0.8246688950912552	-0.04739696871315377	-0.011302446117737093	0.446206247100865	-0.06896307073944898	-0.04657039298619192	0.0725018782477129	-0.10279550991766952	-0.07800657489418548	0.030456826331802155	0.06562493523318087	-0.11574926550388975	0.031562517230015436	-0.000735291462395809	-0.03730494057910101	0.03579914743776054	-0.1420474385702627	0.2073638369500314	0.8231981113381343	-0.05689669553586856	0.22398305317476563	0.4462772387073794	-0.08417139778388301	0.24797280041589773	0.07910536934188123	-0.11246914908649784	0.26529013973938015	0.033166845981011016	0.05225325110121197	0.30113019641890787	0.03862648359570832	0.0053074347376926	0.24063538245932303	0.039364159392807914	-0.1453866269519431	0.11412115482801315	1.4248256939799724	-0.06733883540295849	0.11636584390865004	1.658492853554455	-0.0382047560354274	0.12279927152588765	1.538936090039853	0.06660686687073673	-0.05951752109162817	1.3219223423461604	-0.07698648155136033	-0.12336328477358938	1.0663918252157287	-0.079390358003717	-0.1308930999171909	0.9517341929545542	0.14181527528158716	0.28599167832134936	1.3145895249039254	-0.09726862138638757	0.3462495835991597	1.0615847014189514	-0.09694248688132992	0.36711674695016333	0.9524426952822173	0.0925808795104286
943	18.86	0.10540412563459181	0.8365761502817389	-0.05389314458510115	0.003114916615045802	0.8246005734071655	-0.05002966878550102	-0.010755344959484282	0.4451756324282838	-0.06996086612473303	-0.04429035806620053	0.07308989204281541	-0.10342633467730734	-0.07657656886931445	0.0309402344056834	0.06616825854822023	-0.11525747877145887	0.031974859800632735	0.0045598340240377575	-0.0351332098195477	0.03483792432665266	-0.1406711866518961	0.20761815033897132	0.8241226766642086	-0.05587157933688609	0.22456993540779863	0.44633572268171795	-0.08410190040860771	0.2474950876180988	0.07974435107353463	-0.11299332720431964	0.26328365108586566	0.0336636599267463	0.0490159330829869	0.3004763590403861	0.04067970145063532	0.006417942012176815	0.24022575342615007	0.040088156264663354	-0.14590225719909902	0.11470561717071096	1.4233540376740796	-0.06869903069181654	0.11702357149945623	1.658132604315841	-0.03954140786809027	0.12327055994882365	1.538750109485326	0.06567964754057348	-0.06146064006845236	1.322935820377437	-0.0783902045852019	-0.1212594831464031	1.0673150578391954	-0.07784115854912825	-0.13086144320297358	0.9446997660849985	0.15035974890353798	0.28676537514197636	1.3178814775297993	-0.09199568141821417	0.3466431264462171	1.0648373277555414	-0.09704417522551782	0.36481860521268156	0.9503343176289379	0.08281562952103377
944	18.88	0.10639622602055632	0.8383265612886446	-0.05890915449630199	0.006537557263483245	0.8263357768111362	-0.054198022280438046	-0.011635933831576531	0.4423476257506913	-0.07368681087568382	-0.043464191411626565	0.0703697721108084	-0.0988333758392623	-0.0718092669866488	0.031898317424244114	0.06603502563161877	-0.10973007238985731	0.03191372077955011	0.004312212251931495	-0.03628142886337827	0.031021430073910665	-0.140429437131479	0.20975440373117987	0.8255328328133587	-0.054497679259260766	0.22201949528966575	0.44288863343622503	-0.08594607468808856	0.2502042887320425	0.07071935441010642	-0.10930252176572108	0.2558532452794271	0.030947107981057258	0.06568037868634834	0.2931985401265548	0.028093661130470324	0.015918432251967006	0.24239262539131792	0.029432062912515697	-0.1411422795877445	0.11843047458596218	1.4248593380297279	-0.07281665021007952	0.11887670410187563	1.660212002689149	-0.04231198829023508	0.12323659159387286	1.5416326651335759	0.08068296632435308	-0.06305243458019168	1.319485974258879	-0.08235976775967116	-0.12731306031901396	1.060237979165077	-0.07019801169243509	-0.13712569615382822	0.9413274461899077	0.1641365582580541	0.28573784457768125	1.3126441462907594	-0.08692477070497465	0.3507091793517324	1.0511343917443383	-0.09756345717897315	0.3686848069261629	0.9329151470344236	0.09414562796503383
945	18.9	0.10376719877152665	0.8336295650298963	-0.05183989241037661	0.0025609328852006616	0.8228706704279108	-0.04980341116588704	-0.011234188396765923	0.44494796883835985	-0.0700819063195873	-0.043889232783212384	0.07161531859060047	-0.10533741521182131	-0.07191875326512366	0.030476832550378325	0.05601689350277853	-0.11238512844170465	0.033096541817889076	-0.004530724471184584	-0.03580256096587273	0.034451659298990446	-0.13936468417618866	0.20773143998994004	0.8226152768787857	-0.056245710853500046	0.2232945999345779	0.446165628407659	-0.0895140959403879	0.24639836476551516	0.07835803865898708	-0.10853448205081151	0.2633701851356812	0.036224672430926926	0.04801466489308972	0.2990985239946135	0.041606426264967446	0.008281531352788923	0.23930131118489897	0.038529159419645305	-0.14208515589138146	0.1141759269546292	1.4218715363620273	-0.06672948719986524	0.1165577471835091	1.6588783508922968	-0.03810446901495975	0.1249463279106672	1.5387858946302748	0.06460123418756214	-0.05964624459943506	1.3224150310987068	-0.07639741329053684	-0.1224624561503015	1.0671328798113462	-0.07420314853553482	-0.13342912460609163	0.9346440502509978	0.14805051785878548	0.2866622176412418	1.3164681801362672	-0.0976008378977812	0.34664366022948523	1.0611760314575864	-0.0955692548754263	0.3680858006457437	0.9347197938380111	0.08011213034148228
946	18.92	0.10417921087722017	0.8336366619502839	-0.05201778201337042	0.0034583183474978228	0.821712237411176	-0.049870984718960676	-0.011897950818685788	0.44388508261801685	-0.06888546331539804	-0.04555758146763134	0.07054773729796136	-0.10633010057346937	-0.07605733902678673	0.031377298235456486	0.06854594548960696	-0.11240419072849189	0.032283284365360994	-9.553554045753251e-05	-0.036468124538247486	0.035032042338850634	-0.14704909672061764	0.20772894160003255	0.8212958323635008	-0.05685188614252177	0.22442298514732656	0.44374850319784237	-0.08824936412197622	0.24752613589762829	0.07870279377954804	-0.1147743120686582	0.2646093580887626	0.03366440186063605	0.04866090036294626	0.3031433821879883	0.039219986535806585	0.002722762131048162	0.2405194818335457	0.03899566966168224	-0.14807953776496227	0.11465657036770899	1.4223002499220252	-0.06792122625305899	0.11969096174184772	1.6594576619668007	-0.03897864077464588	0.1258611721449912	1.5387070366199245	0.06508020295411046	-0.06001536078194945	1.3220534717280603	-0.07568179624942711	-0.12234290599109791	1.0653057341705887	-0.07463614754734973	-0.13381190148800015	0.9289895463340709	0.14699470746048887	0.28790091396486084	1.3171019642086894	-0.09377278879670296	0.34544872098958485	1.0603421184042467	-0.09111896462538371	0.3676962984247075	0.9312311541862462	0.07943824573055361
